<svg width="151" height="98" viewBox="0 0 151 98" fill="none" xmlns="http://www.w3.org/2000/svg">
<path d="M139.889 38.6744C145.161 40.2863 148.127 45.8661 146.515 51.1377L135.815 86.1362C134.204 91.4077 128.624 94.3749 123.353 92.7635L10.9307 58.3927C5.659 56.7809 2.69197 51.2008 4.30369 45.9291L17.9221 1.38525L139.889 38.6744Z" fill="#A9DEF0" stroke="#01B5FF" stroke-width="2.21809"/>
<path d="M32.1506 31.0403L34.9619 21.8452L36.2352 22.2345L33.424 31.4296L32.1506 31.0403ZM39.897 33.5845C39.5306 33.4725 39.2652 33.3181 39.1006 33.1212C38.9388 32.9154 38.8474 32.6871 38.8263 32.4364C38.808 32.1767 38.8384 31.9173 38.9177 31.6582L40.3642 26.9266L39.4528 26.6479L39.756 25.656L40.6943 25.9429L41.5112 24.0381L42.4495 24.3249L41.847 26.2953L43.174 26.701L42.8708 27.6929L41.5438 27.2872L40.1505 31.8446C40.0822 32.068 40.0705 32.25 40.1154 32.3908C40.163 32.5226 40.2985 32.6227 40.5219 32.691L41.2726 32.9205L41.0349 33.6979C40.9319 33.7152 40.8137 33.7182 40.6804 33.7068C40.5471 33.6953 40.4107 33.678 40.2712 33.6549C40.1379 33.6435 40.0132 33.62 39.897 33.5845ZM42.2768 34.1362L45.2396 24.4451L46.4192 24.8058L45.3414 28.331L45.4352 28.3597C45.6877 28.1731 45.9489 28.0379 46.2187 27.9543C46.4886 27.8707 46.7685 27.8341 47.0584 27.8446C47.36 27.8489 47.6717 27.9002 47.9933 27.9985C48.4401 28.1351 48.8056 28.3299 49.0898 28.5829C49.3829 28.8387 49.5714 29.165 49.6553 29.5619C49.748 29.9616 49.7056 30.4519 49.5281 31.0327L48.0405 35.8983L46.8609 35.5377L48.2993 30.8329C48.3895 30.538 48.423 30.2845 48.4 30.0722C48.3859 29.8627 48.3282 29.6839 48.2269 29.5356C48.1346 29.3902 48.0015 29.2664 47.8275 29.1643C47.6624 29.065 47.4682 28.9812 47.2448 28.9129C46.9141 28.8118 46.5768 28.7966 46.2327 28.8673C45.8914 28.9291 45.5849 29.0846 45.3133 29.3337C45.0534 29.5767 44.8565 29.9171 44.7226 30.355L43.4563 34.4968L42.2768 34.1362ZM52.3909 28.0679L52.7925 26.7543L53.972 27.1149L53.5704 28.4285L52.3909 28.0679ZM49.8296 36.4453L51.9851 29.3948L53.1647 29.7555L51.0091 36.8059L49.8296 36.4453ZM52.8403 37.3658L54.9958 30.3153L55.9475 30.6063L55.731 31.6979L55.8248 31.7266C56.0999 31.4981 56.3809 31.3299 56.6679 31.2222C56.9638 31.1173 57.267 31.0683 57.5776 31.0753C57.8998 31.0761 58.2262 31.127 58.5568 31.2281C59.0036 31.3647 59.3691 31.5595 59.6533 31.8125C59.9464 32.0682 60.1349 32.3946 60.2187 32.7915C60.3115 33.1912 60.2691 33.6814 60.0915 34.2623L58.604 39.1279L57.4244 38.7673L58.8628 34.0625C58.953 33.7676 58.9865 33.5141 58.9635 33.3018C58.9493 33.0923 58.8917 32.9134 58.7904 32.7652C58.6981 32.6197 58.5649 32.496 58.3909 32.3939C58.2259 32.2946 58.0316 32.2108 57.8082 32.1425C57.4776 32.0414 57.1403 32.0262 56.7962 32.0969C56.4521 32.1676 56.1443 32.3275 55.8727 32.5767C55.61 32.8286 55.4145 33.1646 55.2861 33.5846L54.0198 37.7264L52.8403 37.3658ZM60.3931 39.6749L63.3559 29.9838L64.5355 30.3445L62.6832 36.4031L66.7172 33.8989L68.1113 34.3251L64.8626 36.3219L66.0897 41.4166L64.7359 41.0027L63.8322 36.9595L62.2529 37.8105L61.5726 40.0355L60.3931 39.6749ZM72.7627 43.6325C72.0835 43.4249 71.5118 43.1377 71.0474 42.771C70.5947 42.3981 70.281 41.97 70.1063 41.4866C69.9316 41.0033 69.9276 40.4891 70.0942 39.944C70.2827 39.3274 70.5894 38.8837 71.0142 38.613C71.4417 38.3333 71.9096 38.193 72.418 38.1921L72.4344 38.1385C72.0924 37.8189 71.8307 37.4604 71.6493 37.063C71.4795 36.6593 71.478 36.185 71.6446 35.6399C71.8113 35.0948 72.0905 34.6769 72.4823 34.3863C72.883 34.0984 73.3667 33.9385 73.9334 33.9066C74.5028 33.8657 75.1271 33.9491 75.8063 34.1567C76.4675 34.3589 77.017 34.6392 77.4545 34.9977C77.901 35.359 78.2085 35.7755 78.377 36.2471C78.5482 36.7099 78.556 37.1959 78.4002 37.7053L78.3306 37.9331L77.151 37.5725L77.1961 37.4251C77.2992 37.056 77.2879 36.7252 77.1624 36.4327C77.0485 36.1341 76.8426 35.8806 76.5448 35.6723C76.2586 35.4578 75.901 35.285 75.4721 35.1538C75.1862 35.0664 74.9041 35.0143 74.6258 34.9977C74.3503 34.9721 74.0906 34.9904 73.8468 35.0527C73.612 35.1177 73.4051 35.2352 73.2261 35.4052C73.0498 35.5662 72.9179 35.7898 72.8305 36.0757C72.7185 36.4421 72.715 36.7732 72.8199 37.0691C72.9276 37.3561 73.1067 37.6014 73.3571 37.805C73.6165 38.0113 73.916 38.1664 74.2555 38.2702L75.0866 38.5243L74.7874 39.5028L73.9832 39.2569C73.6257 39.1476 73.268 39.0871 72.9101 39.0754C72.5521 39.0636 72.2335 39.147 71.9542 39.3254C71.6866 39.4977 71.4859 39.8027 71.352 40.2406C71.229 40.6427 71.2232 40.9975 71.3343 41.3051C71.4544 41.6154 71.671 41.882 71.9839 42.1047C72.3059 42.3301 72.6992 42.5139 73.1638 42.6559C73.6642 42.8089 74.0989 42.8734 74.4678 42.8494C74.8366 42.8254 75.1411 42.7084 75.3812 42.4984C75.6213 42.2884 75.7987 41.9958 75.9134 41.6205L76.7084 39.0201L79.0273 39.7291L78.7241 40.721L77.5847 40.3726L77.1053 41.9409C76.925 42.5307 76.6379 42.9901 76.2442 43.3192C75.8594 43.651 75.375 43.845 74.7912 43.901C74.2073 43.957 73.5311 43.8675 72.7627 43.6325ZM27.7651 45.3849L30.5763 36.1898L34.0077 37.2389C34.9728 37.5339 35.7457 37.9461 36.3265 38.4754C36.9073 39.0048 37.2726 39.6636 37.4224 40.4521C37.5838 41.2343 37.5007 42.1615 37.1728 43.2338C36.8504 44.2883 36.4023 45.0991 35.8283 45.6662C35.2632 46.236 34.5905 46.5825 33.8103 46.7055C33.0328 46.8195 32.1615 46.729 31.1965 46.434L27.7651 45.3849ZM29.3745 44.6751L31.5057 45.3267C32.015 45.4824 32.4899 45.5592 32.9303 45.557C33.3734 45.5459 33.7789 45.45 34.1468 45.2694C34.5147 45.0887 34.8343 44.8102 35.1057 44.434C35.3888 44.0515 35.6204 43.5654 35.8008 42.9756L35.8827 42.7075C36.0685 42.0999 36.1496 41.5628 36.1261 41.0964C36.1143 40.6237 36.0064 40.2097 35.8024 39.8542C35.6073 39.5014 35.3279 39.201 34.964 38.9529C34.6028 38.696 34.1631 38.4883 33.6448 38.3298L31.5136 37.6782L29.3745 44.6751ZM40.1464 49.3461C39.4494 49.133 38.8992 48.8231 38.4959 48.4165C38.1042 48.0036 37.8666 47.4864 37.7831 46.8648C37.7085 46.2459 37.7996 45.5165 38.0564 44.6765C38.3159 43.8276 38.6483 43.1719 39.0535 42.7095C39.4703 42.2409 39.9596 41.9508 40.5214 41.8392C41.0859 41.7187 41.7301 41.769 42.4539 41.9903C43.1151 42.1925 43.6296 42.4915 43.9971 42.8872C44.3674 43.274 44.5864 43.7562 44.6541 44.3339C44.7334 44.9053 44.657 45.5708 44.4248 46.3304L44.2527 46.8934L39.186 45.3443C39.0317 45.9127 38.9701 46.402 39.001 46.8121C39.0437 47.216 39.1865 47.5479 39.4295 47.8078C39.6752 48.0588 40.0214 48.2526 40.4682 48.3892C40.7721 48.4821 41.0466 48.527 41.2918 48.5238C41.5488 48.5144 41.775 48.4614 41.9707 48.3649C42.1752 48.2711 42.3478 48.1382 42.4883 47.9662C42.6288 47.7942 42.7391 47.5934 42.819 47.3638L43.9718 47.7162C43.8481 48.0888 43.6701 48.4154 43.4377 48.6962C43.208 48.9679 42.9295 49.1759 42.602 49.3201C42.2746 49.4642 41.9041 49.5415 41.4905 49.5519C41.077 49.5622 40.6289 49.4936 40.1464 49.3461ZM39.4832 44.4679L43.3034 45.6358C43.4236 45.2426 43.48 44.8983 43.4726 44.6029C43.4652 44.3075 43.4025 44.049 43.2847 43.8273C43.1757 43.6083 43.0205 43.4289 42.8189 43.2892C42.6291 43.1432 42.3956 43.0278 42.1186 42.9431C41.7076 42.8175 41.3358 42.7869 41.0034 42.8514C40.671 42.9158 40.3811 43.0812 40.1335 43.3476C39.886 43.6139 39.6692 43.9873 39.4832 44.4679ZM47.1412 51.4847C46.6587 51.3371 46.2493 51.1582 45.9129 50.9479C45.5766 50.7376 45.3165 50.5017 45.1326 50.2403C44.9487 49.9789 44.8338 49.6995 44.7879 49.4021C44.7421 49.1047 44.7697 48.7907 44.8708 48.4601C44.8844 48.4154 44.8967 48.3752 44.9076 48.3394C44.9213 48.2948 44.9367 48.2604 44.9538 48.2363L46.12 48.5928C46.1001 48.6258 46.0861 48.6558 46.0779 48.6826C46.0697 48.7094 46.0615 48.7362 46.0533 48.763C45.9666 49.0785 45.9719 49.3488 46.0692 49.574C46.1754 49.8019 46.3561 49.9939 46.6112 50.1501C46.8664 50.3063 47.1637 50.4363 47.5033 50.5401C47.7982 50.6302 48.0817 50.6778 48.3537 50.6828C48.6285 50.6789 48.8606 50.6228 49.0501 50.5146C49.2511 50.4002 49.3886 50.2224 49.4623 49.9811C49.5525 49.6862 49.5225 49.4328 49.3724 49.2208C49.2339 49.0025 49.0219 48.8009 48.7365 48.616C48.451 48.431 48.1536 48.2374 47.844 48.0353C47.5827 47.8675 47.324 47.6907 47.0682 47.505C46.8123 47.3193 46.59 47.1194 46.4014 46.9054C46.2217 46.6941 46.0945 46.4549 46.0198 46.1878C45.9568 45.9145 45.9786 45.6036 46.0851 45.2551C46.1808 44.9423 46.328 44.6844 46.5269 44.4814C46.7347 44.2811 46.9852 44.133 47.2783 44.0369C47.5715 43.9409 47.9002 43.9046 48.2643 43.928C48.6402 43.9452 49.0381 44.018 49.4581 44.1464C49.9049 44.283 50.2785 44.451 50.5791 44.6504C50.8886 44.8525 51.1278 45.077 51.2965 45.3241C51.4653 45.5711 51.5678 45.8271 51.604 46.0923C51.6429 46.3484 51.6228 46.6061 51.5435 46.8653C51.5271 46.9189 51.5107 46.9725 51.4944 47.0261C51.4807 47.0708 51.4653 47.1052 51.4482 47.1292L50.2954 46.7768L50.3405 46.6294C50.3951 46.4506 50.3979 46.2658 50.3488 46.0749C50.3113 45.8778 50.1915 45.6946 49.9892 45.5253C49.7986 45.3498 49.5022 45.2005 49.1001 45.0776C48.8409 44.9984 48.6107 44.9524 48.4094 44.9397C48.2108 44.9181 48.0353 44.9328 47.8829 44.9839C47.7332 45.0261 47.6093 45.0957 47.5112 45.1928C47.4159 45.2809 47.3464 45.3964 47.3027 45.5394C47.2316 45.7717 47.253 45.9737 47.3666 46.1452C47.4803 46.3167 47.6499 46.481 47.8755 46.6379C48.1101 46.7976 48.3598 46.9716 48.6246 47.1601C48.9101 47.345 49.1986 47.5359 49.4903 47.7325C49.7936 47.9229 50.0574 48.1306 50.2818 48.3556C50.5151 48.5832 50.6739 48.8468 50.7583 49.1461C50.8543 49.4393 50.8408 49.787 50.7179 50.1891C50.6031 50.5644 50.4319 50.8687 50.2043 51.102C49.9766 51.3353 49.7014 51.5003 49.3787 51.5971C49.0649 51.6966 48.717 51.7319 48.335 51.7031C47.9591 51.6859 47.5612 51.6131 47.1412 51.4847ZM54.1182 44.2813L54.5198 42.9678L55.6994 43.3284L55.2978 44.642L54.1182 44.2813ZM51.557 52.6588L53.7125 45.6083L54.8921 45.969L52.7365 53.0194L51.557 52.6588ZM55.0147 56.3835C54.6752 56.2797 54.3843 56.1126 54.142 55.8822C53.8971 55.6607 53.7293 55.3945 53.6387 55.0834C53.5482 54.7724 53.5575 54.4381 53.6668 54.0807C53.787 53.6875 53.994 53.3941 54.2877 53.2005C54.5903 53.0097 54.9126 52.8982 55.2547 52.8659C55.0641 52.6904 54.9349 52.4897 54.8672 52.2638C54.8022 52.029 54.8052 51.7954 54.8762 51.563C54.9719 51.2503 55.1642 51.0208 55.4531 50.8746C55.751 50.7312 56.0762 50.6743 56.4287 50.7039C56.185 50.4144 56.0202 50.0904 55.9344 49.732C55.8602 49.3673 55.8805 48.9973 55.9953 48.622C56.1319 48.1752 56.3548 47.8135 56.6642 47.5367C56.9824 47.2627 57.3861 47.093 57.8751 47.0275C58.3731 46.9648 58.9348 47.0291 59.5604 47.2203C59.8463 47.3077 60.1076 47.412 60.3441 47.5332C60.5834 47.6455 60.7877 47.7763 60.9569 47.9258C61.3134 47.8784 61.6017 47.7663 61.822 47.5893C62.0511 47.4151 62.2191 47.2173 62.3258 46.9959L63.492 47.3524C63.41 47.6205 63.2696 47.856 63.0707 48.059C62.8835 48.2559 62.6626 48.4033 62.4079 48.5013C62.1559 48.5904 61.8743 48.6166 61.563 48.5801C61.7208 48.8629 61.8124 49.1547 61.8377 49.4555C61.8719 49.7591 61.8412 50.0673 61.7455 50.3801C61.6089 50.8269 61.3801 51.1917 61.0591 51.4747C60.7498 51.7514 60.3551 51.9238 59.875 51.992C59.3949 52.0602 58.8376 51.9973 58.2032 51.8034L57.104 51.4673C56.8628 51.3936 56.6511 51.3826 56.4692 51.4345C56.2899 51.4774 56.1689 51.6016 56.1061 51.8071C56.0514 51.9858 56.0823 52.1565 56.1987 52.3191C56.3178 52.4728 56.498 52.5865 56.7393 52.6603L59.6078 53.5372C60.126 53.6957 60.4972 53.9997 60.7213 54.4493C60.9481 54.89 60.9796 55.3784 60.8156 55.9145C60.6982 56.2988 60.4947 56.6128 60.2052 56.8565C59.9219 57.1119 59.5787 57.2756 59.1756 57.3478C58.7787 57.4316 58.3523 57.4039 57.8966 57.2646L55.0147 56.3835ZM55.6244 55.5879L58.1577 56.3624C58.3633 56.4252 58.5646 56.4379 58.7617 56.4005C58.9561 56.372 59.1256 56.2968 59.2704 56.1749C59.4151 56.0531 59.5148 55.9028 59.5694 55.7241C59.6623 55.4202 59.6467 55.1516 59.5226 54.9183C59.3986 54.6849 59.2025 54.5273 58.9344 54.4453L56.2268 53.6175C55.9408 53.5301 55.6695 53.5546 55.4128 53.6911C55.1589 53.8186 54.9895 54.0209 54.9048 54.2979C54.8147 54.5928 54.8406 54.8597 54.9825 55.0985C55.1245 55.3373 55.3384 55.5005 55.6244 55.5879ZM58.4468 50.9105C59.0187 51.0853 59.4814 51.09 59.8349 50.9245C60.1884 50.759 60.4321 50.4573 60.566 50.0194C60.6971 49.5905 60.6624 49.2086 60.4619 48.8737C60.2614 48.5388 59.8752 48.2839 59.3033 48.1091C58.7314 47.9342 58.2642 47.9282 57.9018 48.091C57.5483 48.2565 57.3059 48.5537 57.1748 48.9826C57.0901 49.2597 57.0775 49.5245 57.1371 49.7772C57.1966 50.0299 57.3337 50.2526 57.5484 50.4453C57.7631 50.638 58.0626 50.793 58.4468 50.9105ZM62.0157 55.8564L64.1713 48.8059L65.1229 49.0968L64.9064 50.1885L65.0003 50.2172C65.2753 49.9887 65.5564 49.8205 65.8433 49.7128C66.1392 49.6079 66.4425 49.5589 66.753 49.5659C67.0752 49.5667 67.4016 49.6176 67.7323 49.7187C68.1791 49.8553 68.5446 50.0501 68.8287 50.3031C69.1219 50.5588 69.3104 50.8852 69.3942 51.2821C69.487 51.6818 69.4446 52.172 69.267 52.7529L67.7794 57.6185L66.5999 57.2579L68.0383 52.5531C68.1284 52.2582 68.162 52.0046 68.1389 51.7924C68.1248 51.5829 68.0671 51.404 67.9659 51.2558C67.8735 51.1103 67.7404 50.9866 67.5664 50.8845C67.4013 50.7852 67.2071 50.7014 66.9837 50.6331C66.6531 50.532 66.3157 50.5168 65.9717 50.5875C65.6276 50.6582 65.3198 50.8181 65.0482 51.0673C64.7855 51.3192 64.5899 51.6552 64.4615 52.0752L63.1953 56.217L62.0157 55.8564ZM74.7199 59.9163C74.139 59.7387 73.6782 59.4562 73.3375 59.0686C73.0056 58.6838 72.8069 58.1833 72.7412 57.5672C72.6872 56.9449 72.794 56.1958 73.0618 55.3201C73.3159 54.4891 73.641 53.841 74.0373 53.3759C74.4335 52.9107 74.8768 52.6114 75.3671 52.478C75.8574 52.3445 76.3751 52.3611 76.9202 52.5277C77.2329 52.6234 77.5124 52.7479 77.7586 52.9013C78.0048 53.0548 78.2075 53.2389 78.3666 53.4536C78.5346 53.6711 78.6608 53.9295 78.7451 54.2289L78.8256 54.2535L79.9033 50.7283L81.0829 51.0889L78.12 60.78L77.1684 60.489L77.3685 59.4509L77.2746 59.4222C76.9132 59.7416 76.5102 59.9409 76.0659 60.02C75.6243 60.0902 75.1756 60.0556 74.7199 59.9163ZM75.3169 58.9703C75.7637 59.1069 76.1557 59.1192 76.4928 59.0073C76.8299 58.8954 77.1184 58.6709 77.3582 58.3339C77.607 57.9995 77.8161 57.5554 77.9855 57.0013L78.051 56.7869C78.1986 56.3043 78.2737 55.8827 78.2765 55.522C78.2793 55.1613 78.2259 54.8567 78.1162 54.6082C78.0065 54.3598 77.8523 54.1611 77.6534 54.0124C77.4546 53.8637 77.2301 53.7511 76.9799 53.6746C76.5421 53.5407 76.1573 53.5208 75.8256 53.6148C75.4967 53.6999 75.2079 53.9096 74.9591 54.244C74.713 54.5694 74.4998 55.0269 74.3195 55.6167L74.2335 55.8982C74.0477 56.5058 73.9689 57.0192 73.9972 57.4382C74.0281 57.8483 74.1531 58.1747 74.372 58.4175C74.5998 58.6631 74.9148 58.8473 75.3169 58.9703ZM82.5362 52.9696L82.9378 51.656L84.1173 52.0166L83.7157 53.3302L82.5362 52.9696ZM79.9749 61.347L82.1305 54.2966L83.31 54.6572L81.1545 61.7077L79.9749 61.347ZM83.267 62.3536L85.1193 56.295L84.0738 55.9753L84.3771 54.9834L85.4226 55.3031L85.7668 54.1771C85.8515 53.9001 85.971 53.6533 86.1251 53.4366C86.2821 53.211 86.4954 53.0564 86.7653 52.9728C87.0379 52.8802 87.3752 52.8954 87.7773 53.0183C87.9024 53.0566 88.0203 53.1024 88.131 53.1558C88.2534 53.203 88.3641 53.2564 88.4632 53.316C88.5739 53.3693 88.6698 53.4231 88.751 53.4772L88.4928 54.3217L87.7824 54.1045C87.559 54.0362 87.3759 54.0437 87.2331 54.1271C87.1021 54.2043 87.0051 54.3456 86.9423 54.5512L86.6021 55.6637L88.8942 56.3645L89.2384 55.2385C89.3231 54.9615 89.4426 54.7147 89.5968 54.498C89.7626 54.2751 89.9805 54.1218 90.2503 54.0382C90.5229 53.9457 90.8602 53.9609 91.2624 54.0838C91.3785 54.1193 91.4964 54.1652 91.6161 54.2213C91.7384 54.2685 91.8491 54.3218 91.9482 54.3814C92.0499 54.4321 92.1414 54.4845 92.2226 54.5386L91.9644 55.3831L91.2674 55.17C91.044 55.1017 90.8609 55.1092 90.7182 55.1926C90.5782 55.267 90.4767 55.407 90.4139 55.6126L90.0738 56.7251L91.4276 57.139L91.1243 58.1309L89.7705 57.717L87.9182 63.7756L86.7387 63.4149L88.591 57.3564L86.2989 56.6556L84.4466 62.7142L83.267 62.3536ZM92.9244 65.482C92.2274 65.2689 91.6773 64.959 91.2739 64.5523C90.8823 64.1395 90.6447 63.6222 90.5611 63.0006C90.4865 62.3818 90.5776 61.6524 90.8344 60.8124C91.094 59.9635 91.4263 59.3078 91.8315 58.8454C92.2484 58.3768 92.7377 58.0867 93.2995 57.9751C93.864 57.8545 94.5081 57.9049 95.2319 58.1262C95.8932 58.3284 96.4076 58.6273 96.7752 59.0231C97.1455 59.4099 97.3645 59.8921 97.4322 60.4698C97.5115 61.0412 97.4351 61.7067 97.2028 62.4663L97.0307 63.0292L91.964 61.4802C91.8098 62.0486 91.7481 62.5379 91.7791 62.948C91.8217 63.3518 91.9645 63.6838 92.2075 63.9437C92.4532 64.1947 92.7995 64.3885 93.2463 64.5251C93.5501 64.618 93.8246 64.6628 94.0699 64.6597C94.3268 64.6503 94.5531 64.5973 94.7487 64.5008C94.9533 64.407 95.1258 64.2741 95.2664 64.1021C95.4069 63.9301 95.5171 63.7293 95.5971 63.4997L96.7498 63.8521C96.6262 64.2247 96.4481 64.5513 96.2157 64.832C95.9861 65.1038 95.7075 65.3118 95.3801 65.4559C95.0526 65.6001 94.6821 65.6774 94.2686 65.6877C93.855 65.6981 93.407 65.6295 92.9244 65.482ZM92.2613 60.6037L96.0814 61.7717C96.2016 61.3785 96.258 61.0342 96.2506 60.7388C96.2432 60.4434 96.1806 60.1848 96.0627 59.9631C95.9538 59.7442 95.7985 59.5648 95.597 59.425C95.4071 59.279 95.1737 59.1637 94.8967 59.079C94.4856 58.9533 94.1139 58.9227 93.7815 58.9872C93.4491 59.0517 93.1591 59.2171 92.9116 59.4834C92.6641 59.7497 92.4473 60.1232 92.2613 60.6037ZM97.5021 66.7057L99.6577 59.6552L100.609 59.9461L100.36 61.1451L100.454 61.1738C100.594 60.9722 100.756 60.7923 100.941 60.6339C101.129 60.4666 101.35 60.3532 101.602 60.2937C101.858 60.2252 102.142 60.2388 102.455 60.3344C102.589 60.3754 102.705 60.4257 102.804 60.4853C102.915 60.5387 102.993 60.587 103.038 60.6302L102.707 61.7159L102.264 61.5807C101.96 61.4878 101.68 61.4608 101.424 61.4997C101.18 61.5324 100.957 61.6208 100.757 61.7647C100.557 61.9087 100.381 62.0993 100.23 62.3366C100.089 62.5766 99.9726 62.844 99.8824 63.1389L98.6817 67.0663L97.5021 66.7057ZM104.587 69.0477C103.89 68.8346 103.34 68.5248 102.937 68.1181C102.545 67.7052 102.308 67.188 102.224 66.5664C102.15 65.9475 102.241 65.2181 102.497 64.3781C102.757 63.5292 103.089 62.8736 103.495 62.4112C103.911 61.9426 104.401 61.6525 104.962 61.5408C105.527 61.4203 106.171 61.4707 106.895 61.692C107.556 61.8941 108.071 62.1931 108.438 62.5888C108.809 62.9756 109.027 63.4579 109.095 64.0355C109.175 64.607 109.098 65.2725 108.866 66.032L108.694 66.595L103.627 65.0459C103.473 65.6144 103.411 66.1036 103.442 66.5137C103.485 66.9176 103.628 67.2495 103.871 67.5094C104.116 67.7604 104.462 67.9542 104.909 68.0908C105.213 68.1837 105.488 68.2286 105.733 68.2254C105.99 68.216 106.216 68.163 106.412 68.0665C106.616 67.9727 106.789 67.8398 106.929 67.6678C107.07 67.4958 107.18 67.295 107.26 67.0654L108.413 67.4178C108.289 67.7904 108.111 68.1171 107.879 68.3978C107.649 68.6695 107.371 68.8775 107.043 69.0217C106.716 69.1659 106.345 69.2431 105.932 69.2535C105.518 69.2638 105.07 69.1953 104.587 69.0477ZM103.924 64.1695L107.744 65.3374C107.865 64.9442 107.921 64.5999 107.914 64.3045C107.906 64.0091 107.844 63.7506 107.726 63.5289C107.617 63.3099 107.462 63.1306 107.26 62.9908C107.07 62.8448 106.837 62.7294 106.56 62.6447C106.149 62.5191 105.777 62.4885 105.445 62.553C105.112 62.6175 104.822 62.7829 104.575 63.0492C104.327 63.3155 104.11 63.6889 103.924 64.1695ZM109.165 70.2714L111.321 63.2209L112.272 63.5119L112.056 64.6036L112.15 64.6323C112.425 64.4037 112.706 64.2356 112.993 64.1279C113.289 64.0229 113.592 63.9739 113.902 63.9809C114.225 63.9817 114.551 64.0327 114.882 64.1338C115.329 64.2704 115.694 64.4651 115.978 64.7181C116.271 64.9739 116.46 65.3002 116.544 65.6971C116.636 66.0968 116.594 66.5871 116.416 67.1679L114.929 72.0335L113.749 71.6729L115.188 66.9681C115.278 66.6732 115.311 66.4197 115.288 66.2074C115.274 65.9979 115.217 65.8191 115.115 65.6709C115.023 65.5254 114.89 65.4016 114.716 65.2996C114.551 65.2002 114.357 65.1164 114.133 65.0481C113.803 64.947 113.465 64.9318 113.121 65.0025C112.777 65.0732 112.469 65.2332 112.198 65.4823C111.935 65.7343 111.739 66.0702 111.611 66.4902L110.345 70.632L109.165 70.2714ZM118.317 73.2454C117.951 73.1334 117.686 72.979 117.521 72.7821C117.359 72.5763 117.268 72.348 117.247 72.0973C117.228 71.8376 117.259 71.5782 117.338 71.3191L118.785 66.5875L117.873 66.3088L118.177 65.317L119.115 65.6038L119.932 63.699L120.87 63.9859L120.268 65.9562L121.595 66.3619L121.291 67.3538L119.964 66.9481L118.571 71.5055C118.503 71.7289 118.491 71.911 118.536 72.0517C118.584 72.1835 118.719 72.2836 118.942 72.3519L119.693 72.5814L119.455 73.3588C119.352 73.3762 119.234 73.3791 119.101 73.3677C118.968 73.3562 118.831 73.339 118.692 73.3159C118.558 73.3044 118.434 73.2809 118.317 73.2454Z" fill="black"/>
<circle cx="23.1201" cy="12.8316" r="3.04987" transform="rotate(17 23.1201 12.8316)" fill="#D9D9D9" stroke="#01B5FF" stroke-width="0.554521"/>
</svg>
